<svg xmlns="http://www.w3.org/2000/svg" viewBox="0 0 1200 700" role="img" aria-labelledby="t d">
<title id="t">Automação</title>
<desc id="d">Fluxos inteligentes para ganhar produtividade.</desc>
<defs>
  <linearGradient id="g" x1="0" y1="0" x2="1" y2="1">
    <stop offset="0%" stop-color="#0f172a"/>
    <stop offset="55%" stop-color="#1d4ed8"/>
    <stop offset="100%" stop-color="#38bdf8"/>
  </linearGradient>
  <linearGradient id="g2" x1="1" y1="0" x2="0" y2="1">
    <stop offset="0%" stop-color="#ffffff" stop-opacity="0.18"/>
    <stop offset="100%" stop-color="#ffffff" stop-opacity="0"/>
  </linearGradient>
</defs>
<rect width="1200" height="700" rx="28" fill="url(#g)"/>
<circle cx="1020" cy="120" r="140" fill="url(#g2)"/>
<circle cx="210" cy="570" r="180" fill="url(#g2)"/>
<rect x="90" y="110" width="420" height="220" rx="24" fill="rgba(255,255,255,0.10)" stroke="rgba(255,255,255,0.18)"/>
<rect x="590" y="170" width="520" height="320" rx="28" fill="rgba(255,255,255,0.12)" stroke="rgba(255,255,255,0.22)"/>
<rect x="650" y="230" width="190" height="22" rx="11" fill="#bfdbfe"/>
<rect x="650" y="275" width="330" height="18" rx="9" fill="rgba(255,255,255,0.75)"/>
<rect x="650" y="310" width="250" height="18" rx="9" fill="rgba(255,255,255,0.45)"/>
<rect x="650" y="370" width="120" height="80" rx="18" fill="rgba(255,255,255,0.16)"/>
<rect x="790" y="370" width="120" height="80" rx="18" fill="rgba(255,255,255,0.16)"/>
<rect x="930" y="370" width="120" height="80" rx="18" fill="rgba(255,255,255,0.16)"/>
<text x="130" y="200" fill="#ffffff" font-size="62" font-family="Arial, Helvetica, sans-serif" font-weight="700">Automação</text>
<text x="130" y="250" fill="#dbeafe" font-size="28" font-family="Arial, Helvetica, sans-serif">Fluxos inteligentes para ganhar produtividade.</text>
<text x="130" y="540" fill="#e0f2fe" font-size="24" font-family="Arial, Helvetica, sans-serif">Projeto acadêmico de Tecnologias para Internet</text>
</svg>